<svg enable-background="new 0 0 72 72" viewBox="0 0 72 72" xmlns="http://www.w3.org/2000/svg" xmlns:xlink="http://www.w3.org/1999/xlink"><clipPath id="a"><path d="m33.1 30.5c-1.2-2.1-3.4-3.6-5.9-3.6s-4.7 1.4-5.9 3.6z"/></clipPath><linearGradient id="b"><stop offset="0"/><stop offset=".455" stop-color="#020101" stop-opacity=".545"/><stop offset=".619" stop-color="#090504" stop-opacity=".381"/><stop offset=".736" stop-color="#140d09" stop-opacity=".264"/><stop offset=".831" stop-color="#251711" stop-opacity=".169"/><stop offset=".912" stop-color="#3b251b" stop-opacity=".088"/><stop offset=".982" stop-color="#563627" stop-opacity=".018"/><stop offset="1" stop-color="#5e3b2b" stop-opacity="0"/></linearGradient><linearGradient id="c" gradientUnits="userSpaceOnUse" x1="21.035" x2="33.459" xlink:href="#b" y1="28.795" y2="28.795"/><linearGradient id="d" gradientUnits="userSpaceOnUse" x1="20.609" x2="33.894" xlink:href="#b" y1="27.855" y2="27.855"/><clipPath id="e"><path d="m38.7 30.5c1.2-2.1 3.4-3.6 5.9-3.6s4.7 1.4 5.9 3.6z"/></clipPath><linearGradient id="f" gradientTransform="matrix(-1 0 0 1 -61.9827 0)" gradientUnits="userSpaceOnUse" x1="-112.743" x2="-100.319" xlink:href="#b" y1="28.781" y2="28.781"/><linearGradient id="g" gradientTransform="matrix(-1 0 0 1 -61.9827 0)" gradientUnits="userSpaceOnUse" x1="-113.62" x2="-100.336" xlink:href="#b" y1="27.992" y2="27.992"/><linearGradient id="h" gradientUnits="userSpaceOnUse" x1="35.975" x2="35.975" y1="43.983" y2="37.06"><stop offset="0"/><stop offset=".858" stop-opacity=".141"/><stop offset="1" stop-opacity="0"/></linearGradient><linearGradient id="i" gradientUnits="userSpaceOnUse" x1="32.514" x2="39.609" y1="47.087" y2="47.087"><stop offset="0" stop-color="#a12b41" stop-opacity="0"/><stop offset=".007" stop-color="#a7394e" stop-opacity=".014"/><stop offset=".03" stop-color="#ba6273" stop-opacity=".059"/><stop offset=".056" stop-color="#ca8894" stop-opacity=".11"/><stop offset=".085" stop-color="#d9a8b1" stop-opacity=".165"/><stop offset=".116" stop-color="#e5c4ca" stop-opacity=".226"/><stop offset=".151" stop-color="#eedadd" stop-opacity=".294"/><stop offset=".192" stop-color="#f6ebed" stop-opacity=".375"/><stop offset=".243" stop-color="#fbf6f7" stop-opacity=".474"/><stop offset=".315" stop-color="#fefdfd" stop-opacity=".613"/><stop offset=".513" stop-color="#fff"/><stop offset=".702" stop-color="#fefdfd" stop-opacity=".613"/><stop offset=".769" stop-color="#fbf6f7" stop-opacity=".474"/><stop offset=".818" stop-color="#f6ebed" stop-opacity=".375"/><stop offset=".857" stop-color="#eedadd" stop-opacity=".294"/><stop offset=".89" stop-color="#e5c4ca" stop-opacity=".226"/><stop offset=".92" stop-color="#d9a8b1" stop-opacity=".165"/><stop offset=".947" stop-color="#ca8894" stop-opacity=".11"/><stop offset=".971" stop-color="#ba6273" stop-opacity=".059"/><stop offset=".993" stop-color="#a7394e" stop-opacity=".014"/><stop offset="1" stop-color="#a12b41" stop-opacity="0"/></linearGradient><linearGradient id="j" gradientUnits="userSpaceOnUse" x1="35.829" x2="35.829" y1="36.888" y2="19.009"><stop offset="0"/><stop offset=".174" stop-color="#080504" stop-opacity=".826"/><stop offset=".449" stop-color="#1f130e" stop-opacity=".551"/><stop offset=".788" stop-color="#432a1f" stop-opacity=".212"/><stop offset="1" stop-color="#5e3b2b" stop-opacity="0"/></linearGradient><linearGradient id="k" gradientUnits="userSpaceOnUse" x1="35.935" x2="35.935" y1="38.075" y2="33.951"><stop offset="0"/><stop offset=".141" stop-color="#0b0705" stop-opacity=".813"/><stop offset=".388" stop-color="#281912" stop-opacity=".482"/><stop offset=".712" stop-color="#583728" stop-opacity=".052"/><stop offset=".75" stop-color="#5e3b2b" stop-opacity="0"/></linearGradient><linearGradient id="l" gradientUnits="userSpaceOnUse" x1="33.608" x2="38.045" y1="34.354" y2="34.354"><stop offset="0" stop-color="#805a37" stop-opacity="0"/><stop offset=".045" stop-color="#937255" stop-opacity=".088"/><stop offset=".132" stop-color="#b39d88" stop-opacity=".257"/><stop offset=".217" stop-color="#cfc0b3" stop-opacity=".424"/><stop offset=".3" stop-color="#e4dbd4" stop-opacity=".584"/><stop offset=".379" stop-color="#f3efec" stop-opacity=".737"/><stop offset=".451" stop-color="#fcfbfa" stop-opacity=".879"/><stop offset=".513" stop-color="#fff"/><stop offset=".582" stop-color="#fcfcfb" stop-opacity=".858"/><stop offset=".651" stop-color="#f5f2ef" stop-opacity=".717"/><stop offset=".72" stop-color="#e8e1db" stop-opacity=".575"/><stop offset=".789" stop-color="#d6cabf" stop-opacity=".433"/><stop offset=".859" stop-color="#bfac9a" stop-opacity=".29"/><stop offset=".928" stop-color="#a3876e" stop-opacity=".148"/><stop offset=".996" stop-color="#825c3a" stop-opacity=".008"/><stop offset="1" stop-color="#805a37" stop-opacity="0"/></linearGradient><linearGradient id="m" gradientUnits="userSpaceOnUse" x1="19.98" x2="32.974" xlink:href="#b" y1="28.571" y2="28.571"/><linearGradient id="n" gradientTransform="matrix(-1 0 0 1 -61.9827 0)" gradientUnits="userSpaceOnUse" x1="-113.547" x2="-100.185" xlink:href="#b" y1="28.571" y2="28.571"/><linearGradient id="o"><stop offset="0"/><stop offset=".147" stop-color="#180f0b" stop-opacity=".853"/><stop offset=".373" stop-color="#362219" stop-opacity=".627"/><stop offset=".594" stop-color="#4c3023" stop-opacity=".406"/><stop offset=".806" stop-color="#5a3829" stop-opacity=".194"/><stop offset="1" stop-color="#5e3b2b" stop-opacity="0"/></linearGradient><linearGradient id="p" gradientUnits="userSpaceOnUse" x1="25.098" x2="25.098" xlink:href="#o" y1="39.577" y2="35.248"/><linearGradient id="q" gradientTransform="matrix(-1 0 0 1 -62 0)" gradientUnits="userSpaceOnUse" x1="-108.677" x2="-108.677" xlink:href="#o" y1="39.7" y2="35.37"/><linearGradient id="r"><stop offset="0" stop-color="#5e3b2b" stop-opacity="0"/><stop offset=".04" stop-color="#553627" stop-opacity=".04"/><stop offset=".205" stop-color="#372219" stop-opacity=".205"/><stop offset=".378" stop-color="#1f130e" stop-opacity=".378"/><stop offset=".56" stop-color="#0d0806" stop-opacity=".56"/><stop offset=".758" stop-color="#030201" stop-opacity=".758"/><stop offset="1"/></linearGradient><linearGradient id="s" gradientUnits="userSpaceOnUse" x1="19.649" x2="34.574" xlink:href="#r" y1="24.328" y2="24.328"/><linearGradient id="t" gradientTransform="matrix(-1 0 0 1 -62 0)" gradientUnits="userSpaceOnUse" x1="-114.25" x2="-99.324" xlink:href="#r" y1="24.465" y2="24.465"/><linearGradient id="u" gradientUnits="userSpaceOnUse" x1="36.011" x2="36.011" y1="59.085" y2="30.186"><stop offset=".171"/><stop offset="1" stop-opacity="0"/></linearGradient><linearGradient id="v"><stop offset=".005" stop-color="#5e3b2b" stop-opacity="0"/><stop offset=".015" stop-color="#563627" stop-opacity=".018"/><stop offset=".055" stop-color="#3b251b" stop-opacity=".088"/><stop offset=".101" stop-color="#251711" stop-opacity=".169"/><stop offset=".155" stop-color="#140d09" stop-opacity=".264"/><stop offset=".222" stop-color="#090504" stop-opacity=".381"/><stop offset=".315" stop-color="#020101" stop-opacity=".545"/><stop offset=".575"/><stop offset=".676" stop-color="#030201" stop-opacity=".76"/><stop offset=".761" stop-color="#0e0806" stop-opacity=".562"/><stop offset=".839" stop-color="#1f130e" stop-opacity=".379"/><stop offset=".913" stop-color="#372319" stop-opacity=".204"/><stop offset=".984" stop-color="#563627" stop-opacity=".037"/><stop offset="1" stop-color="#5e3b2b" stop-opacity="0"/></linearGradient><linearGradient id="w" gradientUnits="userSpaceOnUse" x1="27.233" x2="27.233" xlink:href="#v" y1="47.399" y2="41.157"/><linearGradient id="x" gradientTransform="matrix(-1 0 0 1 -64 0)" gradientUnits="userSpaceOnUse" x1="-108.678" x2="-108.678" xlink:href="#v" y1="47.399" y2="41.157"/><linearGradient id="y"><stop offset="0" stop-color="#338ec9"/><stop offset=".1" stop-color="#3b93cb"/><stop offset=".258" stop-color="#529fd1"/><stop offset=".454" stop-color="#77b4db"/><stop offset=".68" stop-color="#aad0e9"/><stop offset=".928" stop-color="#ebf4fa"/><stop offset="1" stop-color="#fff"/></linearGradient><linearGradient id="z" gradientUnits="userSpaceOnUse" x1="29.551" x2="29.551" xlink:href="#y" y1="70.405" y2="61.449"/><linearGradient id="A" gradientTransform="matrix(-1 0 0 1 -59.4483 0)" gradientUnits="userSpaceOnUse" x1="-102.053" x2="-102.053" xlink:href="#y" y1="70.405" y2="61.449"/><linearGradient id="B" gradientUnits="userSpaceOnUse" x1="36.12" x2="36.12" y1="52.027" y2="48.819"><stop offset="0" stop-opacity="0"/><stop offset=".83"/></linearGradient><path d="m56.3 65.7s-16.9-9.3-17.2-9.4l-3.1 4.7-3.1-4.7c-.3.1-17.2 9.4-17.2 9.4-1.1.6-1.9 2.1-1.9 3.3v2.9h15.1 14.2 15.1v-2.9c0-1.2-.8-2.7-1.9-3.3z" fill="#0c003a"/><path d="m18.8 30.7-3.1-1.4c-.8.1-1.4.9-1.2 1.7l1.1 6.9c.1.8.9 1.4 1.7 1.2l3.1-.5z" fill="#805a37"/><path d="m17.1 39.5c-.4 0-.7-.1-1.1-.3-.4-.3-.6-.7-.7-1.2l-1.1-6.9c-.1-.5 0-.9.3-1.3s.7-.6 1.2-.7h.1l3.3 1.5 1.7 8.4-3.4.5c-.1 0-.2 0-.3 0zm-1.4-9.8c-.3.1-.5.2-.7.4-.2.3-.3.6-.2.9l1.1 6.9c0 .3.2.6.5.8s.6.3.9.2l2.7-.4-1.5-7.4z"/><path d="m14.4 30.6 3.3 1.4" fill="#805a37"/><path d="m15.9 29.5h.3v3.6h-.3z" fill="#2a141a" transform="matrix(.3867 -.9222 .9222 .3867 -19.0263 34.0008)"/><path d="m19 37.7c-1.6 0-3-1.3-3-3 0-1.6 1.3-3 3-3s3 1.3 3 3c0 1.6-1.3 3-3 3zm0-5.6c-1.5 0-2.6 1.2-2.6 2.6 0 1.5 1.2 2.6 2.6 2.6s2.6-1.2 2.6-2.6c.1-1.5-1.1-2.6-2.6-2.6z" fill="#2a141a"/><path d="m53 30.7 3.1-1.4c.8.1 1.4.9 1.2 1.7l-1.1 6.9c-.1.8-.9 1.4-1.7 1.2l-3.1-.5z" fill="#805a37"/><path d="m54.7 39.5c-.1 0-.2 0-.3 0l-3.4-.6 1.7-8.4 3.3-1.5h.1c.5.1.9.3 1.2.7s.4.9.3 1.3l-1.1 6.9c-.1.5-.3.9-.7 1.2-.4.2-.7.4-1.1.4zm-2.9-1.1 2.7.4c.3 0 .6 0 .9-.2s.4-.4.5-.8l1.1-6.9c0-.3 0-.6-.2-.9-.2-.2-.4-.4-.7-.4l-2.8 1.3z"/><path d="m57.4 30.6-3.3 1.4" fill="#805a37"/><path d="m54 31.1h3.6v.3h-3.6z" fill="#2a141a" transform="matrix(.9222 -.3868 .3868 .9222 -7.7704 23.9941)"/><path d="m52.8 37.7c-1.6 0-3-1.3-3-3 0-1.6 1.3-3 3-3 1.6 0 3 1.3 3 3-.1 1.6-1.4 3-3 3zm0-5.6c-1.5 0-2.6 1.2-2.6 2.6 0 1.5 1.2 2.6 2.6 2.6 1.5 0 2.6-1.2 2.6-2.6 0-1.5-1.2-2.6-2.6-2.6z" fill="#2a141a"/><path d="m47.5 67.3h-22.4l-3.8-17.8h30.1z" fill="#805a37"/><path d="m51.1 48.1h-30.1l1.5 6.7c4 2.4 9.7 5.8 9.8 5.9h7.6s5.8-3.5 9.8-5.9z" fill="#2a141a" opacity=".3"/><path d="m36.1 2c-10.8 0-19.5 8.7-19.5 19.5l4.1 29.3s12 8.1 12.1 8.2h6.8c0-.1 12.1-8.2 12.1-8.2l4.1-29.3c-.1-10.7-8.9-19.5-19.7-19.5z" fill="#805a37"/><path d="m39.6 59.6h-7l-.3-.2c-.7-.5-7.5-5.1-12-8.1l-.2-.1-4.1-29.6c0-11.1 9-20 20-20 11.1 0 20 9 20 20v.1l-4 29.5-.2.1c-4.1 2.8-10.1 6.8-11.7 7.9zm-6.7-1h6.4c.3-.2.8-.6 1.8-1.2 1-.7 2.4-1.6 4.1-2.8 2.6-1.7 5.1-3.5 5.8-3.9l4.1-29c0-10.5-8.6-19-19-19-10.5 0-19 8.5-19 19l4.1 29.1c8.7 5.7 11 7.3 11.7 7.8z"/><path d="m33.1 30.5c-1.2-2.1-3.4-3.6-5.9-3.6s-4.7 1.4-5.9 3.6z" fill="#fff"/><ellipse clip-path="url(#a)" cx="27.1" cy="28.7" rx="2.6" ry="2.9"/><path d="m21.5 31-.5-.3c1.3-2.5 3.7-4.1 6.4-4.1 2.4 0 4.7 1.3 6 3.5l-.4.3c-1.3-2-3.4-3.3-5.6-3.3-2.5 0-4.7 1.5-5.9 3.9z" fill="url(#c)"/><path d="m20.9 30.3-.3-.2c1.5-2.9 4.3-4.6 7.3-4.6 2.3 0 4.4 1 6 2.7l-.2.2c-1.5-1.7-3.6-2.6-5.7-2.6-3 0-5.7 1.7-7.1 4.5z" fill="url(#d)"/><ellipse cx="28.3" cy="28.2" fill="#fff" opacity=".7" rx=".5" ry=".6"/><path d="m38.7 30.5c1.2-2.1 3.4-3.6 5.9-3.6s4.7 1.4 5.9 3.6z" fill="#fff"/><ellipse clip-path="url(#e)" cx="44.5" cy="28.7" rx="2.6" ry="2.9"/><path d="m50.3 31c-1.2-2.4-3.5-3.8-5.9-3.8-2.3 0-4.3 1.2-5.6 3.3l-.4-.3c1.4-2.2 3.6-3.5 6-3.5 2.7 0 5.1 1.6 6.4 4.1z" fill="url(#f)"/><path d="m51.3 30.4c-1.4-2.8-4.1-4.5-7-4.5-2.2 0-4.2.9-5.7 2.6l-.2-.2c1.6-1.7 3.7-2.7 6-2.7 3 0 5.8 1.8 7.3 4.6z" fill="url(#g)"/><ellipse cx="45.9" cy="28.2" fill="#fff" opacity=".7" rx=".5" ry=".6"/><path d="m44.8 43.9v-3.7l-6.5-3.1h-4.4l-6.8 3.1v3.8s7.2-3.4 7.2-3.5h3.7c-.1 0 6.8 3.4 6.8 3.4z" fill="url(#h)" opacity=".5"/><g opacity=".7"><path d="m29.3 44.5v.1c0 2.3 3 4.2 6.8 4.2s6.8-1.9 6.8-4.2v-.1z" fill="#a12b41"/><path d="m36 48.9c-3.8 0-6.9-1.9-6.9-4.3v-.1-.1h13.8v.1.1c0 2.4-3.1 4.3-6.9 4.3zm-6.6-4.3c0 2.2 3 4.1 6.7 4.1s6.7-1.8 6.7-4.1z" fill="#e95086"/></g><g opacity=".7"><path d="m44.6 44.4c-1.6.7-5.3-1.7-6.7-1.7-.7 0-1.4.3-1.9.7-.5-.3-1.3-.7-1.9-.7-1.3 0-4 2.2-6.3 1.8l5.3 1.6 2.9-1.9 4.4 1.3z" fill="#a12b41"/><path d="m33.1 46.2-5.4-1.6c-.1 0-.1-.1-.1-.1 0-.1.1-.1.1-.1 1.3.2 2.8-.5 4.1-1.1.9-.4 1.6-.8 2.2-.8s1.2.2 1.9.6c.7-.4 1.4-.6 1.9-.6s1.4.4 2.4.8c1.3.5 2.8 1.2 3.8 1.1l.5-.1c.1 0 .1 0 .1.1s0 .1-.1.1c-.2.1-.3.1-.5.1l-3.7.9s0 0-.1 0l-4.2-1.2-2.9 1.9c.1 0 .1 0 0 0zm-4.4-1.6 4.5 1.3 2.8-1.9h.1l4.4 1.3 2.9-.7c-.9-.1-2.1-.6-3.1-1.1-.9-.4-1.8-.8-2.3-.8-.7 0-1.4.3-1.9.6h-.1c-.5-.3-1.2-.6-1.9-.6-.5 0-1.2.3-2.1.7-1 .5-2.2 1.1-3.3 1.2z" fill="#e95086"/></g><path d="m32.5 46.7h7.1v.8h-7.1z" fill="url(#i)" opacity=".5"/><path d="m19.7 28.6h33.5v2.5h-33.5z" fill="#805a37"/><path d="m40.6 34.7-3.9-7.2v-8.3h-1.9l-.1 8.2-3.7 7.3c-.6 0-1.1.4-1.1 1 0 .5.5 1 1.1 1h9.5c.6 0 1.1-.4 1.1-1 .1-.5-.4-1-1-1z" fill="#805a37"/><path d="m40.6 36.9h-9.5c-.7 0-1.3-.5-1.3-1.2 0-.6.5-1.1 1.2-1.2l3.6-7.1.1-8.4h2.3v8.4l3.8 7.1c.7.1 1.2.6 1.2 1.2-.1.7-.7 1.2-1.4 1.2zm-9.5-2c-.5 0-.9.3-.9.8s.4.8.9.8h9.5c.5 0 .9-.3.9-.8s-.4-.8-.9-.8h-.1l-4-7.4v-8.1h-1.5l-.1 8.1-3.7 7.4z" fill="url(#j)"/><path d="m38.3 34v2c0 1.1-1.1 2-2.3 2-1.3 0-2.3-.9-2.3-2s0-2 0-2" fill="#805a37"/><path d="m37.8 38.1h-3.7c-.4 0-.7-.3-.7-.7v-3.4h.4v3.5c0 .2.1.3.3.3h3.7c.2 0 .3-.1.3-.3v-3.5h.4v3.5c0 .3-.3.6-.7.6z" fill="url(#k)"/><path d="m33.6 33.9h4.4v.8h-4.4z" fill="url(#l)" opacity=".5"/><path d="m32.8 28.7h-12.7c-.1 0-.1-.1-.1-.1 0-.1.1-.1.1-.1h12.7c.1 0 .1.1.1.1.1 0 0 .1-.1.1z" fill="url(#m)"/><path d="m51.4 28.7h-13.1c-.1 0-.1-.1-.1-.1 0-.1.1-.1.1-.1h13.1c.1 0 .1.1.1.1.1 0 0 .1-.1.1z" fill="url(#n)"/><path d="m25.2 39.6c-2.5 0-4.6-1.7-5.2-4.1 0-.1 0-.2.1-.2s.2 0 .2.1c.5 2.2 2.5 3.8 4.8 3.8 2.1 0 4-1.3 4.7-3.3 0-.1.1-.1.2-.1s.1.1.1.2c-.7 2.2-2.7 3.6-4.9 3.6z" fill="url(#p)" opacity=".5"/><path d="m46.6 39.7c-2.2 0-4.3-1.4-5-3.5 0-.1 0-.2.1-.2s.2 0 .2.1c.7 2 2.6 3.3 4.7 3.3 2.3 0 4.3-1.6 4.8-3.8 0-.1.1-.2.2-.1.1 0 .2.1.1.2-.5 2.3-2.6 4-5.1 4z" fill="url(#q)" opacity=".5"/><path d="m30 22.3h-7.3l-3.1 3.8c1-1.7 10-1.5 10-1.5s3.3 1.9 4.9 1.8c-2.1-.9-3.8-1.8-4.5-4.1z" fill="url(#s)"/><path d="m41.9 22.4h7.3l3.1 3.8c-1-1.7-10-1.5-10-1.5s-3.3 1.9-4.9 1.8c2.1-.9 3.8-1.8 4.5-4.1z" fill="url(#t)"/><path d="m46.5 44.4h-1.9c0 6.8-3.8 12.3-8.5 12.3s-8.5-5.5-8.5-12.3c0-.1 0 0 0-.1h-1.9c-6.8 0-6.7-11-7.9-13.9l2.9 20.6s11.8 7.9 12.1 8.2h6.8c0-.1 12.1-8.2 12.1-8.2l2.7-20.7c-.6 8.1-4.9 13.9-7.9 14.1z" fill="url(#u)" opacity=".7"/><path d="m44.9 44.2c-4 .8-6.7-.6-8.8-.6-2 0-5.9 1.2-9.3.6l9.4 3.1z"/><path d="m30.6 44.3v1.2l5.6 1.8 5.2-1.8v-1.1c-2.2-.2-3.9-.9-5.3-.9-1.4.1-3.4.6-5.5.8z" fill="#fff"/><path d="m27.2 47.4c-.1 0-.2-.1-.2-.2v-5.9c0-.1.1-.2.2-.2s.2.1.2.2v5.9c0 .1-.1.2-.2.2z" fill="url(#w)"/><path d="m44.7 47.4c-.1 0-.2-.1-.2-.2v-5.9c0-.1.1-.2.2-.2s.2.1.2.2v5.9c-.1.1-.1.2-.2.2z" fill="url(#x)"/><path d="m23.2 58.9 12.8 6.8 13.7-7-3.3 13.2-20.2-.1c-.1.1-3-13.2-3-12.9z" fill="#fff"/><path d="m38.9 66.5-1.5-1.7h-2.8l-1.5 1.7 2.9 1.9z" fill="#0072bc"/><path d="m29.8 70.4-5.4-8.8.2-.2 5.2 8.6 4.7-5.3.2.2z" fill="url(#z)"/><path d="m42.4 70.4-5-5.5.2-.2 4.7 5.3 5.3-8.6.2.2z" fill="url(#A)"/><path d="m36.6 49c-.2 0-.3 0-.5 0s-.3 0-.5 0c-.5 0-1.1-.1-1.6-.2l2.1 3.2 2.1-3.2c-.5.1-1 .2-1.6.2z" fill="url(#B)"/><path d="m32.4 64.7h7.6v.5h-7.6z" fill="#fff"/><path d="m54.7 70.7-1.7-2-1.6 2z" fill="#fff"/><path d="m34.1 69.5v2.5h4v-2.5l-2-1.5z" fill="#0072bc"/></svg>